<svg width="23" height="24" viewBox="0 0 23 24" fill="none" xmlns="http://www.w3.org/2000/svg">
<path d="M12.3414 0.291699C12.0094 0.100587 11.6331 0 11.25 0C10.8669 0 10.4906 0.100587 10.1586 0.291699L1.09612 5.50957C0.762947 5.70138 0.486202 5.9776 0.293768 6.31042C0.101334 6.64323 8.75114e-06 7.02088 0 7.40532V21.0576C0 22.2657 0.979375 23.2451 2.1875 23.2451H6.5625C7.77063 23.2451 8.75 22.2657 8.75 21.0576V14.4951H13.75V21.0576C13.75 22.2657 14.7294 23.2451 15.9375 23.2451H20.3125C21.5206 23.2451 22.5 22.2657 22.5 21.0576V7.40532C22.5 7.02088 22.3987 6.64323 22.2062 6.31042C22.0138 5.9776 21.7371 5.70138 21.4039 5.50957L12.3414 0.291699Z" fill="#888888"/>
</svg>
