<svg width="25" height="25" viewBox="0 0 25 25" fill="none" xmlns="http://www.w3.org/2000/svg">
<path d="M1.875 12.5C1.875 6.632 6.632 1.875 12.5 1.875C18.368 1.875 23.125 6.632 23.125 12.5C23.125 15.1421 22.1575 17.5564 20.5615 19.4152C19.5658 17.5335 17.5904 16.2502 15.3125 16.25H9.6875C7.4095 16.2502 5.433 17.5332 4.43725 19.4152C2.8415 17.5565 1.875 15.1419 1.875 12.5ZM5.87162 20.8008C6.43862 19.2406 7.93237 18.1252 9.6875 18.125H15.3125C17.0672 18.1252 18.5611 19.2399 19.1284 20.7995C18.0882 21.6322 16.9008 22.2619 15.6279 22.6556C14.6146 22.9678 13.5602 23.126 12.5 23.125C11.4216 23.126 10.3494 22.9624 9.32038 22.6399C8.06684 22.2456 6.89743 21.622 5.87162 20.8008ZM25 12.5C25 5.5965 19.4035 0 12.5 0C5.5965 0 0 5.5965 0 12.5C0 19.4035 5.5965 25 12.5 25C15.7055 25 18.6274 23.7916 20.8399 21.8079C20.8445 21.8035 20.85 21.8001 20.8545 21.7956C23.3988 19.5075 25 16.1912 25 12.5Z" fill="#888888"/>
<path d="M16.7375 9.37459C16.7375 7.03409 14.8401 5.13672 12.4996 5.13672C10.1591 5.13672 8.26172 7.03409 8.26172 9.37459C8.26172 11.7151 10.1591 13.6125 12.4996 13.6125C14.8401 13.6125 16.7375 11.7151 16.7375 9.37459Z" fill="#888888"/>
<path d="M9.37461 9.375C9.37461 7.64913 10.7737 6.25 12.4996 6.25C14.2255 6.25 15.6246 7.64913 15.6246 9.375C15.6246 11.1009 14.2255 12.5 12.4996 12.5C10.7737 12.5 9.37461 11.1009 9.37461 9.375ZM17.4996 9.375C17.4996 6.61363 15.261 4.375 12.4996 4.375C9.73824 4.375 7.49961 6.61363 7.49961 9.375C7.49961 12.1364 9.73824 14.375 12.4996 14.375C15.261 14.375 17.4996 12.1364 17.4996 9.375ZM12.521 23.9707C17.5087 23.9707 20.0412 21.1999 19.381 20.0789C18.5346 18.4794 16.8555 17.3886 14.9194 17.3885H10.1382C8.20199 17.3886 6.52199 18.4792 5.67561 20.0789C5.30874 21.3974 7.53324 23.9707 12.521 23.9707Z" fill="#888888"/>
</svg>
