<svg width="20" height="25" viewBox="0 0 20 25" fill="none" xmlns="http://www.w3.org/2000/svg">
<path d="M17.4972 0H2.4996C1.12482 0 0 1.12482 0 2.4996V22.4964C0 23.8712 1.12482 24.996 2.4996 24.996H17.4972C18.872 24.996 19.9968 23.8712 19.9968 22.4964V2.4996C19.9968 1.12482 18.872 0 17.4972 0ZM3.7494 3.8994C3.7494 3.1245 4.3743 2.4996 5.1492 2.4996H8.5986C9.3735 2.4996 9.9984 3.1245 9.9984 3.8994V7.3488C9.9984 8.1237 9.3735 8.7486 8.5986 8.7486H5.1492C4.3743 8.7486 3.7494 8.1237 3.7494 7.3488V3.8994ZM8.8986 22.5089H4.6992C4.17432 22.5089 3.76188 22.084 3.76188 21.5716C3.76188 21.0466 4.17432 20.6342 4.69926 20.6342H8.8986C9.42348 20.6342 9.8484 21.0466 9.8484 21.5716C9.8484 22.084 9.42348 22.5089 8.8986 22.5089ZM15.2726 18.1221H4.64928C4.12434 18.1221 3.7119 17.7097 3.7119 17.1847C3.7119 16.6723 4.12434 16.2474 4.64928 16.2474H15.2726C15.785 16.2474 16.2099 16.6723 16.2099 17.1847C16.2099 17.7097 15.785 18.1221 15.2726 18.1221ZM15.2726 13.7478H4.66176C4.14936 13.7478 3.72444 13.3229 3.72444 12.8104C3.72444 12.298 4.14936 11.8731 4.66176 11.8731H15.2726C15.785 11.8731 16.2099 12.298 16.2099 12.8104C16.2099 13.3228 15.785 13.7478 15.2726 13.7478Z" fill="#888888"/>
</svg>
