<svg width="26" height="21" viewBox="0 0 26 21" fill="none" xmlns="http://www.w3.org/2000/svg">
<path d="M17.4985 3.75432L24.9973 3.747L24.9961 2.4972C24.9947 1.12242 23.8688 -0.00131884 22.494 1.16171e-06L2.4972 0.0196813C1.12242 0.0210013 -0.00131884 1.14696 1.16171e-06 2.52168L0.0147613 17.5193C0.0161413 18.8941 1.14204 20.0178 2.51682 20.0165L22.5136 19.9969C23.8884 19.9955 25.0121 18.8696 25.0108 17.4948L25.0096 16.245L17.5108 16.2523C14.0613 16.2557 11.259 13.459 11.2556 10.0095C11.2522 6.56004 14.049 3.75768 17.4985 3.75432Z" fill="#888888"/>
<path d="M17.5015 6.25347C15.4394 6.25545 13.7539 7.94433 13.7559 10.0065C13.7578 12.0686 15.4468 13.7543 17.509 13.7523L25.0078 13.7449L25.0004 6.24609L17.5015 6.25347ZM18.7816 11.5638C17.9193 11.5647 17.2062 10.8655 17.2054 10.0031C17.2045 9.14079 17.9037 8.44017 18.766 8.43933H18.7785C19.6409 8.43849 20.3415 9.13773 20.3423 10.0001C20.3431 10.8624 19.644 11.5631 18.7816 11.5638Z" fill="#888888"/>
</svg>
